<svg id="Layer_1" data-name="Layer 1" xmlns="http://www.w3.org/2000/svg" viewBox="0 0 17.43 17.43">
  <defs>
    <style>.cls-1{fill:#fff;}</style>
  </defs>
  <title>Instragram</title>
  <path class="cls-1" d="M13.89,17.43H3.55A3.55,3.55,0,0,1,0,13.89V3.55A3.55,3.55,0,0,1,3.55,0H13.89a3.55,3.55,0,0,1,3.55,3.55V13.89A3.55,3.55,0,0,1,13.89,17.43ZM3.55,1.33A2.22,2.22,0,0,0,1.33,3.55V13.89A2.22,2.22,0,0,0,3.55,16.1H13.89a2.22,2.22,0,0,0,2.21-2.21V3.55a2.22,2.22,0,0,0-2.21-2.21Z"/>
  <circle class="cls-1" cx="8.65" cy="9.26" r="4.25"/>
  <circle class="cls-1" cx="13.4" cy="4.03" r="1.22"/>
</svg>