<?xml version="1.0" standalone="no"?>
<!DOCTYPE svg PUBLIC "-//W3C//DTD SVG 20010904//EN"
 "http://www.w3.org/TR/2001/REC-SVG-20010904/DTD/svg10.dtd">
<svg version="1.0" xmlns="http://www.w3.org/2000/svg"
 width="16.000000pt" height="16.000000pt" viewBox="0 0 16.000000 16.000000"
 preserveAspectRatio="xMidYMid meet">
<metadata>
Created by potrace 1.11, written by Peter Selinger 2001-2013
</metadata>
<g transform="translate(0.000000,16.000000) scale(0.002286,-0.002286)"
fill="#000000" stroke="none">
<path d="M0 3500 l0 -3500 3500 0 3500 0 0 3500 0 3500 -3500 0 -3500 0 0
-3500z m1945 -100 c593 -56 1082 -440 1279 -1006 44 -126 67 -259 73 -423 8
-221 -24 -411 -101 -604 -48 -117 -68 -156 -141 -267 -471 -715 -1448 -885
-2135 -372 -41 31 -115 97 -165 147 -223 226 -362 505 -415 830 -17 100 -14
333 4 445 78 482 375 885 812 1103 245 122 515 172 789 147z m3477 -16 c739
-124 1272 -787 1235 -1535 -27 -547 -339 -1020 -834 -1268 -212 -106 -473
-160 -718 -148 -665 31 -1223 492 -1380 1138 -81 335 -41 694 112 1004 292
592 932 919 1585 809z"/>
<path d="M1650 1999 c-259 -67 -466 -277 -525 -533 -18 -77 -21 -240 -6 -307
53 -233 193 -410 406 -510 355 -167 776 -17 945 336 53 111 67 160 76 267 11
131 -28 297 -98 416 -18 32 -72 96 -119 144 -72 72 -101 93 -181 132 -52 26
-126 53 -164 61 -97 21 -242 18 -334 -6z"/>
<path d="M5045 2010 c-230 -46 -434 -214 -527 -436 -79 -187 -68 -421 28 -605
178 -339 589 -482 932 -323 161 74 279 187 352 339 52 106 72 197 72 320 -1
337 -231 625 -559 699 -75 17 -228 20 -298 6z"/>
</g>
</svg>
